<svg viewBox="0 0 190 44" fill="none" xmlns="http://www.w3.org/2000/svg">
<path d="M28.4889 30.2336C28.0539 24.589 23.4208 22.1282 19.2219 22.1282C14.0102 22.1282 8.65238 25.3128 8.65238 32.984C8.65238 39.7871 13.8649 43.6962 18.9322 43.6962C22.6969 43.6962 26.4609 41.5242 27.9095 36.7478C26.6061 38.9198 24.5789 39.9324 22.4072 39.9324C16.9058 39.9324 13.7197 35.1552 13.7197 30.2328H28.4889V30.2336ZM13.7204 29.6543C13.8649 24.5882 16.4716 22.5623 18.9322 22.5623C21.3944 22.5623 23.5653 24.443 23.5653 26.9054C23.5653 27.7736 23.4208 28.7861 22.8414 29.6543H13.7204Z" fill="#D32020"/>
<path d="M4.05119 13.2722C4.05119 13.2722 2.11589 8.61557 2.27301 6.3667C2.27301 6.3667 3.52411 12.4399 7.30029 11.1237L4.05119 13.2722Z" fill="#D32020"/>
<path d="M16.3725 13.4677C16.3725 13.4677 18.6522 8.96966 18.6645 6.71533C18.6645 6.71533 16.9606 12.6773 13.294 11.0811L16.3725 13.4677Z" fill="#D32020"/>
<path d="M0 23.143V23.5771H2.46141V40.3687C2.46141 43.408 4.6323 43.696 6.66032 43.696H7.67393V23.5771H11.4379V23.143H7.67393V20.3926C7.67393 17.4969 7.23896 12.4309 11.4379 12.2856C14.6232 12.2856 16.6512 15.3273 17.9545 17.9325C17.9545 17.9325 17.9545 17.0324 17.661 16.1029C17.4751 15.7311 17.4751 15.3593 16.9174 14.6156C16.3597 13.872 13.1762 11.7071 10.5703 11.7071C5.35858 11.7071 2.4622 15.6162 2.4622 20.6814V23.1438H0V23.143Z" fill="#D32020"/>
<path d="M80.6057 40.3687C80.6057 43.408 82.9234 43.6961 84.9499 43.6961H85.9627V28.7884C85.9627 24.5905 83.6473 22.5646 79.7373 22.5646C78.1451 22.5646 76.6973 22.8534 75.3932 23.5779C76.6973 22.1313 77.5648 20.2482 77.7109 17.9334C77.7109 13.5911 75.105 11.708 72.4992 11.708C68.7344 11.708 66.5619 15.0377 66.5619 18.5111V40.3695C66.5619 43.4088 68.7344 43.6969 70.7609 43.6969H71.7745V26.6172L72.4992 26.0379C74.0914 24.7365 75.3939 23.8668 76.9862 23.8668C78.8698 23.8668 80.6057 25.3158 80.6057 28.7892C80.6057 34.1441 80.6057 35.0122 80.6057 40.3687ZM71.7737 17.3533C71.7737 15.1813 73.0778 14.0236 74.2359 14.0236C75.6829 14.0236 77.1307 15.3274 77.1307 17.9326C77.1307 20.2474 75.6829 22.9986 74.2359 24.1564C73.5112 24.5905 72.9318 25.0246 72.3523 25.4579L71.7729 25.8919V17.3533H71.7737Z" fill="#D32020"/>
<path d="M41.3579 40.3687C41.3579 43.4081 43.6732 43.6961 45.702 43.6961H46.7156V26.3284C46.7156 23.432 44.3987 22.9987 42.3715 22.9987H41.3579V40.3687Z" fill="#D32020"/>
<path d="M61.4985 40.6565C61.4985 42.6824 59.3261 43.1165 57.7354 43.1165C53.8254 43.2617 50.4964 40.8017 48.6129 37.472V41.381C50.6393 42.5396 53.6794 43.6958 57.2988 43.6958C61.4978 43.6958 65.4077 42.1031 65.4077 38.0513C65.4077 31.9727 52.2324 28.7881 52.2324 25.0243C52.2324 23.4316 53.8254 22.4191 55.7082 22.4191C58.4577 22.4191 62.0772 24.0117 63.8155 27.6303V23.8657C62.0772 22.7071 59.1824 21.985 56.2852 21.985C52.3768 21.985 48.6121 23.4324 48.6121 27.4843C48.6137 33.4193 61.4985 36.0253 61.4985 40.6565Z" fill="#D32020"/>
<path d="M35.1421 22.9976H39.0505V22.4191H35.1421C35.1421 19.5234 32.5362 18.8005 30.6526 18.2212L29.9295 17.9308V19.6687C29.9295 22.4191 29.7843 22.4191 27.4665 22.4191V22.9976H28.6254C29.9295 22.9976 29.9295 22.9976 29.9295 24.2998V39.0647C29.9295 42.2492 31.9568 43.6966 34.1284 43.6966C36.0096 43.6966 38.1821 42.6833 39.4862 41.0914C38.9052 41.5271 38.0369 41.8159 37.3137 41.8159C35.4302 41.8159 35.1421 40.6573 35.1421 39.2107V22.9976Z" fill="#D32020"/>
<path d="M41.4462 18.8253C41.2889 19.3474 41.1887 19.8876 41.2149 20.4116C41.2521 21.1482 41.7498 22.469 42.6398 21.8633C43.2445 21.4518 43.4472 20.1993 43.5602 19.529C43.4659 20.0887 43.8717 21.1588 44.2975 21.3606C44.8164 21.6055 45.5392 21.2141 45.7192 20.5482C45.9652 19.6394 45.4499 18.6098 45.0244 17.9716C44.7131 17.5054 44.3639 17.0641 44.1511 16.5237C43.9167 15.9293 43.9841 15.4161 44.1155 14.7694C43.9084 14.8155 43.7165 15.0616 43.5693 15.2384C42.6975 16.2848 41.9537 17.2804 41.5101 18.6228C41.4882 18.6909 41.4668 18.7579 41.4462 18.8253Z" fill="#D32020"/>
<path d="M171.246 30.2509C170.818 24.5968 166.264 22.1318 162.137 22.1318C157.015 22.1318 151.749 25.3217 151.749 33.0061C151.749 39.8208 156.872 43.7365 161.852 43.7365C165.553 43.7365 169.252 41.5609 170.676 36.7763C169.395 38.952 167.402 39.9663 165.268 39.9663C159.861 39.9663 156.729 35.1809 156.729 30.2501H171.246V30.2509ZM156.73 29.6707C156.872 24.596 159.434 22.5666 161.852 22.5666C164.272 22.5666 166.406 24.4505 166.406 26.9171C166.406 27.7867 166.264 28.801 165.695 29.6707H156.73Z" fill="white"/>
<path d="M100.108 40.4219C100.108 43.4495 102.385 43.7365 104.38 43.7365H105.377V26.4352C105.377 23.5498 103.098 23.1182 101.105 23.1182H100.108V40.4219Z" fill="white"/>
<path d="M86.9342 23.0839V23.5201H89.3903V40.3929C89.3903 43.4469 91.5566 43.7364 93.5803 43.7364H94.5917V23.5201H98.3476V23.0839H94.5917V20.3202C94.5917 17.4105 94.1577 12.3199 98.3476 12.174C101.526 12.174 103.55 15.2304 104.85 17.8483C104.85 17.8483 104.85 16.9438 104.557 16.0097C104.372 15.6361 104.372 15.2625 103.815 14.5153C103.259 13.7681 100.082 11.5927 97.4819 11.5927C92.2813 11.5927 89.3911 15.5207 89.3911 20.6104V23.0847H86.9342V23.0839Z" fill="white"/>
<path d="M88.5 7.04534C87.5885 7.23029 86.8729 7.79319 85.9694 7.9765" stroke="white" stroke-linecap="round"/>
<path d="M87.3696 5.41056C86.8978 5.50628 86.3332 5.72041 85.8801 5.60832" stroke="white" stroke-linecap="round"/>
<path d="M88.1438 3.71271C87.519 3.80107 86.7381 3.13164 86.3867 2.71162" stroke="white" stroke-linecap="round"/>
<path d="M104.751 3.24738C104.735 3.06203 105.62 2.57829 105.77 2.41407" stroke="white" stroke-linecap="round"/>
<path d="M105.63 4.97671C105.673 5.09402 106.285 5.1037 106.431 5.12759" stroke="white" stroke-linecap="round"/>
<path d="M104.111 6.51005C104.174 6.634 104.831 6.93007 104.983 6.98284C105.187 7.05357 105.362 7.45664 105.554 7.57492" stroke="white" stroke-linecap="round"/>
<path d="M94.1861 2.38262C94.836 2.19444 95.5051 2.05899 96.1858 1.96096C96.7551 1.89755 97.3226 1.86069 97.8872 1.86086C97.3169 1.89702 96.7518 1.95458 96.1966 2.02254L96.1851 2.02487C95.5229 2.12048 94.852 2.23324 94.1861 2.38262Z" fill="white" stroke="white"/>
<mask id="path-20-inside-1_1_141" fill="white">
<path d="M103.444 5.29234C103.286 5.51644 103.105 5.73278 102.872 5.91452C102.354 6.33993 101.725 6.66163 101.078 6.92887C99.7713 7.45606 98.3637 7.74579 96.9588 7.94416C95.5507 8.12099 94.1183 8.20641 92.7256 8.0383C92.0341 7.95052 91.3479 7.80478 90.7437 7.53357C90.4344 7.40497 90.1758 7.22103 89.9461 7.02081C89.7407 6.80389 89.5962 6.55658 89.5498 6.28798C89.5376 6.11574 89.5694 5.9436 89.6289 5.77483C89.4563 5.79045 89.2827 5.80209 89.1096 5.81919C89.072 5.99389 89.0602 6.17308 89.0825 6.35158C89.1428 6.71443 89.3383 7.03667 89.593 7.29907C89.8639 7.54152 90.1606 7.76351 90.4968 7.91298C91.1534 8.24013 91.8716 8.43689 92.6004 8.56635C93.3298 8.695 94.0733 8.75838 94.8183 8.77153C95.5644 8.77478 96.3106 8.71836 97.0518 8.62484C97.7903 8.51244 98.523 8.36309 99.2389 8.15615C99.9517 7.93942 100.648 7.67535 101.312 7.35281C101.975 7.03174 102.61 6.64714 103.148 6.15804C103.43 5.92557 103.651 5.63589 103.844 5.33474C103.85 5.32309 103.854 5.31042 103.86 5.29877C103.721 5.29518 103.583 5.29343 103.444 5.29234Z"/>
</mask>
<path d="M103.444 5.29234C103.286 5.51644 103.105 5.73278 102.872 5.91452C102.354 6.33993 101.725 6.66163 101.078 6.92887C99.7713 7.45606 98.3637 7.74579 96.9588 7.94416C95.5507 8.12099 94.1183 8.20641 92.7256 8.0383C92.0341 7.95052 91.3479 7.80478 90.7437 7.53357C90.4344 7.40497 90.1758 7.22103 89.9461 7.02081C89.7407 6.80389 89.5962 6.55658 89.5498 6.28798C89.5376 6.11574 89.5694 5.9436 89.6289 5.77483C89.4563 5.79045 89.2827 5.80209 89.1096 5.81919C89.072 5.99389 89.0602 6.17308 89.0825 6.35158C89.1428 6.71443 89.3383 7.03667 89.593 7.29907C89.8639 7.54152 90.1606 7.76351 90.4968 7.91298C91.1534 8.24013 91.8716 8.43689 92.6004 8.56635C93.3298 8.695 94.0733 8.75838 94.8183 8.77153C95.5644 8.77478 96.3106 8.71836 97.0518 8.62484C97.7903 8.51244 98.523 8.36309 99.2389 8.15615C99.9517 7.93942 100.648 7.67535 101.312 7.35281C101.975 7.03174 102.61 6.64714 103.148 6.15804C103.43 5.92557 103.651 5.63589 103.844 5.33474C103.85 5.32309 103.854 5.31042 103.86 5.29877C103.721 5.29518 103.583 5.29343 103.444 5.29234Z" fill="white"/>
<path d="M103.444 5.29234L103.435 4.29635L102.914 4.29224L102.618 4.71173L103.444 5.29234ZM102.872 5.91452L102.243 5.12755L102.233 5.135L102.224 5.14268L102.872 5.91452ZM101.078 6.92887L101.47 7.85251L101.478 7.84948L101.078 6.92887ZM96.9588 7.94416L97.1023 8.93234L97.1099 8.93138L97.1176 8.9303L96.9588 7.94416ZM92.7256 8.0383L92.6157 9.02626L92.6219 9.02701L92.7256 8.0383ZM90.7437 7.53357L91.144 6.62734L91.1309 6.62147L91.1177 6.61597L90.7437 7.53357ZM89.9461 7.02081L89.2203 7.69598L89.254 7.73158L89.291 7.76383L89.9461 7.02081ZM89.5498 6.28798L88.5483 6.3399L88.5518 6.38984L88.5603 6.43926L89.5498 6.28798ZM89.6289 5.77483L90.5771 6.11883L91.0991 4.64007L89.5202 4.78291L89.6289 5.77483ZM89.1096 5.81919L88.9925 4.82805L88.277 4.89872L88.1275 5.5951L89.1096 5.81919ZM89.0825 6.35158L88.0862 6.45682L88.0887 6.47671L88.092 6.4965L89.0825 6.35158ZM89.593 7.29907L88.8757 7.98327L88.9009 8.00921L88.9279 8.03333L89.593 7.29907ZM90.4968 7.91298L90.9346 7.02451L90.9144 7.01441L90.8937 7.00521L90.4968 7.91298ZM92.6004 8.56635L92.4405 9.54669L92.4418 9.54691L92.6004 8.56635ZM94.8183 8.77153L94.8183 9.76749L94.8318 9.76755L94.8183 8.77153ZM97.0518 8.62484L97.1958 9.61294L97.2086 9.61134L97.2212 9.60941L97.0518 8.62484ZM99.2389 8.15615L99.5355 9.11289L99.5486 9.10892L99.2389 8.15615ZM101.312 7.35281L100.859 6.45615L100.858 6.45681L101.312 7.35281ZM103.148 6.15804L102.498 5.38813L102.48 5.40277L102.463 5.41822L103.148 6.15804ZM103.844 5.33474L104.694 5.87902L104.716 5.84536L104.734 5.81005L103.844 5.33474ZM103.86 5.29877L104.751 5.77409L105.507 4.34525L103.869 4.30308L103.86 5.29877ZM103.444 5.29234L102.618 4.71173C102.491 4.89224 102.373 5.02595 102.243 5.12755L102.872 5.91452L103.502 6.7015C103.837 6.43962 104.082 6.14064 104.27 5.87295L103.444 5.29234ZM102.872 5.91452L102.224 5.14268C101.813 5.48049 101.284 5.75818 100.678 6.00825L101.078 6.92887L101.478 7.84948C102.167 7.56509 102.896 7.19936 103.521 6.68637L102.872 5.91452ZM101.078 6.92887L100.686 6.00525C99.4862 6.4892 98.1689 6.76474 96.8001 6.95802L96.9588 7.94416L97.1176 8.9303C98.5584 8.72685 100.056 8.42291 101.47 7.85248L101.078 6.92887ZM96.9588 7.94416L96.8153 6.95598C95.4447 7.12812 94.1046 7.20353 92.8294 7.0496L92.7256 8.0383L92.6219 9.02701C94.1319 9.20928 95.6568 9.11387 97.1023 8.93234L96.9588 7.94416ZM92.7256 8.0383L92.8356 7.05037C92.1903 6.96846 91.6167 6.83953 91.144 6.62734L90.7437 7.53357L90.3434 8.43979C91.0791 8.77004 91.8778 8.93258 92.6157 9.02624L92.7256 8.0383ZM90.7437 7.53357L91.1177 6.61597C90.9432 6.54342 90.7785 6.43228 90.6013 6.27778L89.9461 7.02081L89.291 7.76383C89.573 8.00978 89.9257 8.26651 90.3698 8.45117L90.7437 7.53357ZM89.9461 7.02081L90.672 6.34563C90.565 6.23261 90.5433 6.15998 90.5392 6.1367L89.5498 6.28798L88.5603 6.43926C88.6491 6.95318 88.9164 7.37517 89.2203 7.69598L89.9461 7.02081ZM89.5498 6.28798L90.5513 6.23606C90.551 6.23168 90.5497 6.19649 90.5771 6.11883L89.6289 5.77483L88.6807 5.43083C88.589 5.69071 88.5243 5.99979 88.5483 6.3399L89.5498 6.28798ZM89.6289 5.77483L89.5202 4.78291C89.3935 4.79437 89.1563 4.81187 88.9925 4.82805L89.1096 5.81919L89.2266 6.81034C89.4091 6.79231 89.519 6.78654 89.7377 6.76675L89.6289 5.77483ZM89.1096 5.81919L88.1275 5.5951C88.0701 5.8624 88.0483 6.15359 88.0862 6.45682L89.0825 6.35158L90.0788 6.24635C90.0721 6.19257 90.074 6.12538 90.0916 6.04329L89.1096 5.81919ZM89.0825 6.35158L88.092 6.4965C88.1942 7.11179 88.5172 7.61384 88.8757 7.98327L89.593 7.29907L90.3102 6.61487C90.1594 6.4595 90.0914 6.31707 90.0731 6.20667L89.0825 6.35158ZM89.593 7.29907L88.9279 8.03333C89.2395 8.3122 89.6273 8.61061 90.1 8.82074L90.4968 7.91298L90.8937 7.00521C90.6939 6.9164 90.4883 6.77085 90.258 6.5648L89.593 7.29907ZM90.4968 7.91298L90.059 8.80145C90.8334 9.1873 91.6549 9.40712 92.4405 9.54669L92.6004 8.56635L92.7603 7.58602C92.0884 7.46666 91.4734 7.29296 90.9346 7.02451L90.4968 7.91298ZM92.6004 8.56635L92.4418 9.54691C93.2311 9.68612 94.0283 9.75345 94.8183 9.7674L94.8183 8.77153L94.8184 7.77567C94.1183 7.76331 93.4285 7.70387 92.7591 7.5858L92.6004 8.56635ZM94.8183 8.77153L94.8318 9.76755C95.6311 9.77103 96.4221 9.71057 97.1958 9.61294L97.0518 8.62484L96.9077 7.63674C96.1992 7.72614 95.4976 7.77853 94.8049 7.77552L94.8183 8.77153ZM97.0518 8.62484L97.2212 9.60941C97.9922 9.49207 98.7688 9.33443 99.5354 9.11281L99.2389 8.15615L98.9423 7.1995C98.2772 7.39176 97.5885 7.5328 96.8824 7.64027L97.0518 8.62484ZM99.2389 8.15615L99.5486 9.10892C100.303 8.87939 101.05 8.59726 101.767 8.24881L101.312 7.35281L100.858 6.45681C100.247 6.75345 99.6 6.99945 98.9292 7.20339L99.2389 8.15615ZM101.312 7.35281L101.765 8.24946C102.481 7.90323 103.204 7.47042 103.834 6.89787L103.148 6.15804L102.463 5.41822C102.017 5.82385 101.47 6.16025 100.859 6.45615L101.312 7.35281ZM103.148 6.15804L103.799 6.92795C104.19 6.60461 104.475 6.22146 104.694 5.87902L103.844 5.33474L102.993 4.79047C102.827 5.05032 102.669 5.24652 102.498 5.38813L103.148 6.15804ZM103.844 5.33474L104.734 5.81005C104.748 5.78494 104.758 5.76358 104.764 5.74946C104.767 5.74227 104.77 5.73614 104.772 5.73183C104.774 5.72776 104.775 5.72405 104.776 5.72289C104.777 5.72101 104.776 5.72168 104.776 5.72272C104.775 5.72399 104.774 5.7271 104.772 5.73128C104.768 5.73939 104.761 5.75479 104.751 5.77409L103.86 5.29877L102.97 4.82346C102.956 4.84858 102.946 4.86994 102.94 4.88406C102.937 4.89125 102.934 4.89738 102.932 4.90169C102.93 4.90576 102.929 4.90947 102.928 4.91062C102.927 4.91251 102.928 4.91184 102.928 4.9108C102.929 4.90952 102.93 4.90642 102.932 4.90223C102.936 4.89413 102.943 4.87872 102.953 4.85943L103.844 5.33474ZM103.86 5.29877L103.869 4.30308C103.721 4.29928 103.576 4.29746 103.435 4.29635L103.444 5.29234L103.454 6.28833C103.589 6.2894 103.721 6.29109 103.852 6.29446L103.86 5.29877Z" fill="white" mask="url(#path-20-inside-1_1_141)"/>
<path d="M150.168 17.4271C150.168 12.9448 147.475 11.0657 144.642 11.0657C141.949 11.0657 139.255 13.0888 139.255 16.2694C139.255 19.1593 140.815 21.0397 142.091 22.0519C141.806 22.0519 141.381 22.0519 141.097 22.0519C134.295 22.0519 129.617 26.8237 129.617 33.761C129.617 38.8221 132.593 43.7364 137.979 43.7364C139.962 43.7364 141.663 43.015 143.93 41.1345L144.923 40.2677C145.065 42.8695 147.191 43.1575 149.033 43.1575H150.167V17.4271H150.168ZM144.924 23.3536C142.373 21.9079 139.68 20.0289 139.68 16.5588C139.68 14.2464 141.097 12.9448 142.372 12.9448C143.648 12.9448 144.923 13.9556 144.923 16.2709V23.3536H144.924ZM143.932 40.56C142.656 41.5722 141.524 42.0056 140.531 42.0056C137.554 42.0056 135.287 38.3915 135.287 33.1878C135.287 29.2829 136.705 22.4882 141.665 22.4882C143.507 22.4882 144.924 23.7884 144.924 25.6689V39.6917L143.932 40.56Z" fill="white"/>
<path d="M123.178 40.3347C123.178 43.4418 125.507 43.7366 127.544 43.7366H128.563V28.4947C128.563 24.2027 126.234 22.1318 122.308 22.1318C119.396 22.1318 117.069 23.3168 114.887 25.09L114.304 25.6825C114.158 23.0191 111.976 22.5755 110.085 22.5755H109.066V40.3347C109.066 43.4418 111.247 43.7366 113.286 43.7366H114.304V26.275L115.033 25.6825C116.632 24.3515 117.942 23.4628 119.543 23.4628C121.434 23.4628 123.18 24.9441 123.18 28.4947V40.3347H123.178Z" fill="white"/>
<path fill-rule="evenodd" clip-rule="evenodd" d="M176.764 24.3684C176.047 23.1216 174.717 22.5754 173.306 22.5754H172.299V40.3347C172.299 43.4417 174.599 43.7365 176.612 43.7365L177.042 44L177.286 27.6266C177.983 27.485 178.719 27.4763 179.487 27.5797C180.5 27.7162 181.476 28.0661 182.447 28.4844C182.612 28.5556 182.777 28.6279 182.943 28.7001C183.647 29.0079 184.352 29.3161 185.068 29.5518C186.223 29.9313 187.294 29.8307 188.151 29.0785C188.71 28.5875 189.014 27.9175 189.118 27.1285C189.133 27.0119 189.103 26.9078 188.982 26.8799C188.895 26.8601 188.779 26.8636 188.724 26.9123C188.663 26.9654 188.641 27.0737 188.622 27.167L188.621 27.1751C188.512 27.7306 188.333 28.2456 187.949 28.6329C187.419 29.1656 186.716 29.2312 185.961 29.1527C185.854 29.141 185.746 29.1254 185.639 29.1099C185.585 29.1021 185.532 29.0943 185.478 29.087C185.62 29.0169 185.767 28.9915 185.914 28.9669C186.594 28.8553 187.188 28.5866 187.678 28.1232C188.023 27.7974 188.275 27.3985 188.512 26.9811C188.77 26.5259 188.897 26.0307 188.875 25.4706C188.869 25.3084 188.796 25.2129 188.656 25.1476C188.629 25.1351 188.602 25.1223 188.572 25.1082C188.551 25.0979 188.528 25.087 188.502 25.0749C188.524 24.9545 188.546 24.8349 188.567 24.7159C188.601 24.5272 188.635 24.34 188.669 24.1529C188.699 23.9895 188.637 23.8712 188.474 23.8609C188.366 23.8532 188.247 23.9104 188.168 23.9814C188.124 24.021 188.102 24.0858 188.079 24.1513C188.067 24.1871 188.054 24.223 188.038 24.2551C187.589 25.1664 186.851 25.6764 185.847 25.8441C185.302 25.9364 184.745 25.9022 184.184 25.8679C184.151 25.8658 184.118 25.8638 184.085 25.8618C184.232 25.8034 184.382 25.7511 184.531 25.6988C184.692 25.6423 184.853 25.586 185.01 25.5225C185.971 25.1329 186.591 24.2108 186.515 23.0359C186.507 22.9082 186.486 22.7757 186.328 22.7478C186.169 22.7198 186.067 22.7947 186.047 22.9539C186.033 23.0704 186.034 23.1924 186.034 23.3131C186.034 23.3266 186.034 23.3401 186.034 23.3536C186.033 24.1352 185.774 24.7514 185.096 25.0583C184.822 25.1819 184.506 25.2504 184.196 25.2819C183.308 25.372 182.405 25.211 181.501 25.0228C180.506 24.8149 179.513 24.5997 178.519 24.3801C177.896 24.2421 177.31 24.2355 176.764 24.3684ZM177.018 24.9093C177.017 24.9066 177.016 24.9039 177.015 24.9011C177.021 24.9016 177.026 24.9022 177.032 24.9029C177.027 24.905 177.023 24.9072 177.018 24.9093ZM177.237 25.7259C177.221 25.6327 177.203 25.5418 177.182 25.4532C177.183 25.4524 177.185 25.4516 177.186 25.4509C177.855 25.0824 178.594 24.9325 179.411 25.0617L179.423 25.0637C179.573 25.088 179.725 25.1123 179.873 25.1722C179.748 25.1801 179.621 25.1851 179.495 25.1902C179.227 25.2009 178.959 25.2117 178.698 25.2495C178.163 25.3278 177.676 25.4881 177.237 25.7259ZM177.294 27.0852L177.296 26.967C177.336 26.9567 177.376 26.9478 177.417 26.941C178.278 26.7954 179.165 26.7181 180.059 26.9316C180.463 27.0273 180.857 27.2273 181.25 27.427C181.424 27.5153 181.598 27.6035 181.773 27.6827C181.794 27.6913 181.807 27.7201 181.821 27.761C180.303 27.0819 178.794 26.7813 177.294 27.0852ZM183.98 27.103L183.971 27.1404C183.865 27.1085 183.759 27.0759 183.653 27.0433C183.436 26.9769 183.219 26.9103 183.002 26.8486C181.937 26.5482 180.871 26.3214 179.798 26.215C179.632 26.1987 179.466 26.1539 179.299 26.1091C179.224 26.0892 179.15 26.0692 179.075 26.0517L179.073 26.0512C178.872 26.0037 178.67 25.9561 178.412 25.8949C178.453 25.8805 178.49 25.8647 178.525 25.8499C178.593 25.821 178.652 25.7959 178.716 25.7916C178.804 25.7852 178.891 25.7776 178.979 25.7701C179.28 25.7442 179.582 25.7182 179.888 25.7374C180.382 25.7675 180.88 25.8396 181.378 25.9116C181.441 25.9206 181.504 25.9297 181.566 25.9387C181.71 25.9593 181.861 26.0259 182.001 26.0956C182.466 26.3268 182.93 26.5635 183.393 26.8C183.568 26.8894 183.743 26.9787 183.919 27.0677C183.934 27.0759 183.95 27.0853 183.965 27.0945C183.97 27.0974 183.975 27.1002 183.98 27.103ZM186.985 27.8799L187.016 27.9427L187.015 27.9435C186.986 27.9596 186.957 27.9764 186.928 27.9932C186.863 28.0303 186.799 28.0675 186.732 28.0981C185.938 28.4541 185.08 28.4776 184.179 28.2244C183.44 28.0165 182.741 27.6643 182.051 27.2847C182.04 27.2782 182.03 27.2686 182.011 27.2509C181.996 27.2367 181.976 27.2174 181.946 27.1905C181.98 27.1967 182.009 27.2017 182.033 27.2059C182.082 27.2145 182.115 27.2202 182.148 27.2283C182.426 27.2944 182.705 27.3621 182.984 27.4298C183.578 27.5743 184.172 27.7187 184.768 27.8474C185.465 27.9969 186.16 28.0513 186.826 27.8954C186.86 27.8882 186.894 27.8862 186.929 27.8841C186.948 27.883 186.966 27.8819 186.985 27.8799ZM183.735 26.3645C184.401 26.6319 185.074 26.7838 185.745 26.7652C186.656 26.7395 187.349 26.3302 187.799 25.5462C187.22 25.9288 186.591 26.1966 185.889 26.3267C185.325 26.4312 184.745 26.4062 184.162 26.381C184.02 26.3749 183.878 26.3687 183.735 26.3645ZM185.606 27.3731C186.871 27.2531 187.821 26.6905 188.344 25.5181L188.347 25.5185C188.325 25.602 188.304 25.6858 188.283 25.7696C188.228 25.9897 188.174 26.21 188.11 26.4263C187.979 26.8652 187.641 27.0791 187.252 27.2349C186.741 27.4398 186.184 27.434 185.606 27.3731Z" fill="white"/>
<path d="M102.714 21.5458C101.121 21.5458 100.108 20.3872 100.108 18.9405C100.108 17.3487 101.121 16.3353 102.714 16.3353C104.306 16.3353 105.319 17.3479 105.319 18.9405C105.319 20.3872 104.307 21.5458 102.714 21.5458Z" fill="white"/>
</svg>
